<svg width="157" height="39" viewBox="0 0 157 39" xmlns="http://www.w3.org/2000/svg"><g fill="none"><path d="M30.607 6.764c.308.195.667.308 1.155.308.646 0 1.178-.33 1.178-1.073 0-1.028-2.401-1.156-2.401-2.529 0-.84.735-1.366 1.659-1.366.255 0 .667.038 1.028.172l-.083.473c-.232-.128-.601-.195-.953-.195-.54 0-1.133.225-1.133.9 0 1.051 2.401 1.058 2.401 2.589 0 1.058-.908 1.478-1.718 1.478-.51 0-.908-.105-1.186-.225l.053-.532zm6.918-2.649a2.183 2.183 0 0 0-.818-.195c-.923 0-1.441.668-1.441 1.598 0 .871.525 1.599 1.388 1.599.3 0 .578-.068.863-.173l.045.443c-.323.112-.623.135-.983.135-1.231 0-1.831-.938-1.831-2.003 0-1.178.758-2.003 1.891-2.003.458 0 .788.105.923.15l-.037.449zm1.426-2.311h.473V4.25h.015c.203-.42.63-.735 1.193-.735 1.028 0 1.306.683 1.306 1.628v2.289h-.473V5.151c0-.66-.127-1.23-.908-1.23-.84 0-1.133.795-1.133 1.463v2.048h-.473V1.804zm8.69 5.628h-.57l-1.043-3.309h-.015L44.97 7.432h-.57l-1.23-3.827h.518l1.005 3.31h.015l1.065-3.31h.57l1.013 3.31h.015l1.058-3.31h.473zm5.057-.12c-.33.135-.758.21-1.111.21-1.268 0-1.741-.855-1.741-2.003 0-1.17.646-2.003 1.613-2.003 1.081 0 1.523.871 1.523 1.898v.24h-2.619c0 .811.436 1.463 1.261 1.463.345 0 .848-.143 1.073-.285v.48h.001zm-.233-2.064c0-.668-.27-1.328-.975-1.328-.698 0-1.126.698-1.126 1.328h2.101zm2.476-2.664h-.473v-.63h.473v.63zm-.472 1.02h.473v3.827h-.473V3.604zm1.899 3.43l2.304-3.024h-2.214v-.405h2.761v.405l-2.303 3.017h2.303v.405h-2.851zm6.835.278c-.33.135-.758.21-1.111.21-1.268 0-1.741-.855-1.741-2.003 0-1.17.646-2.003 1.613-2.003 1.081 0 1.523.871 1.523 1.898v.24h-2.619c0 .811.436 1.463 1.261 1.463.345 0 .848-.143 1.073-.285v.48h.001zm-.233-2.064c0-.668-.27-1.328-.975-1.328-.698 0-1.126.698-1.126 1.328h2.101zm2.004-.788c0-.42 0-.578-.03-.855h.473v.735h.015c.173-.427.496-.825.983-.825.112 0 .248.022.33.045v.496a1.242 1.242 0 0 0-.345-.045c-.75 0-.953.841-.953 1.531v1.891h-.473V4.46zm3.557-1.876h-.473v-.63h.473v.63zm-.473 1.02h.473v3.827h-.473V3.604zm1.959 3.272c.285.143.63.24.998.24.45 0 .848-.248.848-.683 0-.908-1.838-.765-1.838-1.876 0-.758.615-1.043 1.246-1.043.203 0 .608.045.945.173l-.045.413a2.225 2.225 0 0 0-.848-.18c-.488 0-.826.15-.826.638 0 .713 1.883.623 1.883 1.876 0 .811-.758 1.088-1.335 1.088-.368 0-.735-.045-1.073-.18l.045-.466zm6.287-2.761a2.183 2.183 0 0 0-.818-.195c-.923 0-1.441.668-1.441 1.598 0 .871.525 1.599 1.388 1.599.3 0 .578-.068.863-.173l.045.443c-.323.112-.623.135-.983.135-1.231 0-1.831-.938-1.831-2.003 0-1.178.758-2.003 1.891-2.003.458 0 .788.105.923.15l-.037.449zm1.426-2.311h.473V4.25h.015c.203-.42.63-.735 1.193-.735 1.028 0 1.306.683 1.306 1.628v2.289h-.473V5.151c0-.66-.127-1.23-.908-1.23-.84 0-1.133.795-1.133 1.463v2.048h-.473V1.804zm7.324 5.508c-.33.135-.758.21-1.111.21-1.268 0-1.741-.855-1.741-2.003 0-1.17.646-2.003 1.613-2.003 1.081 0 1.523.871 1.523 1.898v.24h-2.619c0 .811.436 1.463 1.261 1.463.345 0 .848-.143 1.073-.285v.48h.001zm-.233-2.064c0-.668-.27-1.328-.975-1.328-.698 0-1.126.698-1.126 1.328h2.101zm4.502-3.054h2.566v.45h-2.048v1.869h1.943v.45h-1.943v2.019h2.139v.45h-2.656V2.194zm4.758.39h-.473v-.63h.473v.63zm-.473 1.02h.473v3.827h-.473V3.604zm5.283 3.828h-.473v-.608h-.015c-.255.488-.646.698-1.193.698-1.05 0-1.576-.87-1.576-2.003 0-1.163.45-2.003 1.576-2.003.75 0 1.125.548 1.193.735h.015V1.805h.473v5.627zm-1.606-.315c.84 0 1.133-.901 1.133-1.599s-.292-1.598-1.133-1.598c-.9 0-1.133.855-1.133 1.598-.001.743.232 1.599 1.133 1.599zm6.363 0c0 1.065-.48 1.936-1.793 1.936-.503 0-.96-.143-1.156-.203l.038-.473c.292.15.713.271 1.125.271 1.216 0 1.321-.886 1.321-1.966h-.015c-.255.555-.675.75-1.163.75-1.223 0-1.613-1.065-1.613-1.914 0-1.163.45-2.003 1.576-2.003.51 0 .84.067 1.193.525h.015v-.436h.473v3.513h-.001zm-1.636-.091c.855 0 1.163-.811 1.163-1.508 0-.923-.27-1.598-1.133-1.598-.9 0-1.133.855-1.133 1.598 0 .751.3 1.508 1.103 1.508zm5.928.286c-.33.135-.758.21-1.111.21-1.268 0-1.741-.855-1.741-2.003 0-1.17.646-2.003 1.613-2.003 1.081 0 1.523.871 1.523 1.898v.24h-2.619c0 .811.436 1.463 1.261 1.463.345 0 .848-.143 1.073-.285v.48h.001zm-.233-2.064c0-.668-.27-1.328-.975-1.328-.698 0-1.126.698-1.126 1.328h2.101zm2.004-.743c0-.293 0-.593-.03-.901h.458v.683h.015c.157-.345.442-.773 1.238-.773.946 0 1.306.63 1.306 1.471v2.446h-.473V5.105c0-.72-.255-1.186-.908-1.186-.863 0-1.133.758-1.133 1.396v2.116h-.473V4.505zm6.25-.99c1.238 0 1.786.96 1.786 2.003 0 1.043-.548 2.003-1.786 2.003s-1.786-.96-1.786-2.003c0-1.043.549-2.003 1.786-2.003zm0 3.602c.826 0 1.268-.713 1.268-1.599 0-.885-.442-1.598-1.268-1.598-.825 0-1.268.713-1.268 1.598 0 .886.443 1.599 1.268 1.599zm2.972-.241c.285.143.63.24.998.24.45 0 .848-.248.848-.683 0-.908-1.838-.765-1.838-1.876 0-.758.615-1.043 1.246-1.043.203 0 .608.045.945.173l-.045.413a2.225 2.225 0 0 0-.848-.18c-.488 0-.826.15-.826.638 0 .713 1.884.623 1.884 1.876 0 .811-.758 1.088-1.336 1.088-.368 0-.735-.045-1.073-.18l.045-.466zm3.504 0c.285.143.63.24.998.24.45 0 .848-.248.848-.683 0-.908-1.838-.765-1.838-1.876 0-.758.615-1.043 1.246-1.043.203 0 .608.045.945.173l-.045.413a2.225 2.225 0 0 0-.848-.18c-.488 0-.826.15-.826.638 0 .713 1.884.623 1.884 1.876 0 .811-.758 1.088-1.336 1.088-.368 0-.735-.045-1.073-.18l.045-.466zm6.363.436c-.33.135-.758.21-1.111.21-1.268 0-1.741-.855-1.741-2.003 0-1.17.646-2.003 1.613-2.003 1.081 0 1.523.871 1.523 1.898v.24h-2.619c0 .811.436 1.463 1.261 1.463.345 0 .848-.143 1.073-.285v.48h.001zm-.233-2.064c0-.668-.27-1.328-.975-1.328-.698 0-1.126.698-1.126 1.328h2.101zm2.004-.743c0-.293 0-.593-.03-.901h.458v.683h.015c.157-.345.442-.773 1.238-.773.946 0 1.306.63 1.306 1.471v2.446h-.473V5.105c0-.72-.255-1.186-.908-1.186-.863 0-1.133.758-1.133 1.396v2.116h-.473V4.505zm4.465 2.371c.285.143.63.24.998.24.45 0 .848-.248.848-.683 0-.908-1.838-.765-1.838-1.876 0-.758.615-1.043 1.246-1.043.203 0 .608.045.945.173l-.045.413a2.225 2.225 0 0 0-.848-.18c-.488 0-.826.15-.826.638 0 .713 1.884.623 1.884 1.876 0 .811-.758 1.088-1.336 1.088-.368 0-.735-.045-1.073-.18l.045-.466zm6.288-2.761a2.183 2.183 0 0 0-.818-.195c-.923 0-1.441.668-1.441 1.598 0 .871.525 1.599 1.388 1.599.3 0 .578-.068.863-.173l.045.443c-.323.112-.623.135-.983.135-1.231 0-1.831-.938-1.831-2.003 0-1.178.758-2.003 1.891-2.003.458 0 .788.105.923.15l-.037.449zm1.426-2.311h.473V4.25h.015c.203-.42.63-.735 1.193-.735 1.028 0 1.306.683 1.306 1.628v2.289h-.473V5.151c0-.66-.128-1.23-.908-1.23-.84 0-1.133.795-1.133 1.463v2.048h-.473V1.804zm6.955 5.012h-.015c-.21.458-.743.705-1.216.705-1.088 0-1.261-.735-1.261-1.081 0-1.283 1.366-1.343 2.356-1.343h.09v-.195c0-.653-.232-.983-.87-.983-.397 0-.772.09-1.126.315v-.458a3.01 3.01 0 0 1 1.126-.263c.945 0 1.343.428 1.343 1.426v1.688c0 .308 0 .54.038.803h-.466v-.614h.001zm-.045-1.313h-.135c-.818 0-1.793.083-1.793.923 0 .502.359.69.795.69 1.11 0 1.133-.968 1.133-1.381v-.232zm2.506-1.493h-.772v-.405h.772v-.277c0-.803.03-1.613 1.014-1.613.149 0 .353.022.442.075l-.03.413a.832.832 0 0 0-.375-.083c-.646 0-.578.698-.578 1.155v.33h.863v.405h-.863v3.422h-.473V4.01zm4.412 0h-.87v2.477c0 .345.128.63.511.63.18 0 .3-.038.435-.09l.03.39a1.723 1.723 0 0 1-.578.105c-.84 0-.87-.578-.87-1.275V4.011h-.75v-.405h.75v-.923l.473-.165v1.088h.87v.404h-.001zM34.284 13.129c-.33-.172-.803-.225-1.171-.225-1.358 0-2.124.96-2.124 2.259 0 1.32.743 2.258 2.124 2.258.345 0 .871-.045 1.171-.225l.03.45c-.285.173-.87.225-1.201.225-1.651 0-2.641-1.088-2.641-2.708 0-1.591 1.021-2.709 2.641-2.709.308 0 .931.053 1.201.195l-.03.48zm3.249.736c1.238 0 1.786.96 1.786 2.003 0 1.043-.548 2.003-1.786 2.003s-1.786-.96-1.786-2.003c0-1.043.548-2.003 1.786-2.003zm0 3.602c.826 0 1.268-.713 1.268-1.599 0-.885-.442-1.598-1.268-1.598-.825 0-1.268.713-1.268 1.598 0 .886.443 1.599 1.268 1.599zm3.264-2.612c0-.293 0-.593-.03-.901h.458v.683h.015c.157-.345.442-.773 1.238-.773.946 0 1.306.63 1.306 1.471v2.446h-.473v-2.326c0-.72-.255-1.186-.908-1.186-.863 0-1.133.758-1.133 1.396v2.116h-.473v-2.926zm5.08-.495h-.773v-.405h.773v-.277c0-.803.03-1.613 1.013-1.613.15 0 .353.022.443.075l-.03.413a.832.832 0 0 0-.375-.083c-.645 0-.578.698-.578 1.155v.33h.863v.405h-.863v3.422h-.473V14.36zm5.328 3.302c-.33.135-.758.21-1.111.21-1.268 0-1.741-.855-1.741-2.003 0-1.17.646-2.003 1.613-2.003 1.081 0 1.523.871 1.523 1.898v.24H48.87c0 .811.436 1.463 1.261 1.463.345 0 .848-.143 1.073-.285v.48h.001zm-.233-2.064c0-.668-.27-1.328-.975-1.328-.698 0-1.126.698-1.126 1.328h2.101zm-.787-3.121h.593l-.945 1.081h-.345l.697-1.081zm5.822 5.305h-.473v-.608h-.015c-.255.488-.646.698-1.193.698-1.05 0-1.576-.87-1.576-2.003 0-1.163.45-2.003 1.576-2.003.75 0 1.125.548 1.193.735h.015v-2.446h.473v5.627zm-1.606-.315c.84 0 1.133-.901 1.133-1.599s-.292-1.598-1.133-1.598c-.9 0-1.133.855-1.133 1.598 0 .743.233 1.599 1.133 1.599zm5.898.195c-.33.135-.758.21-1.111.21-1.268 0-1.741-.855-1.741-2.003 0-1.17.646-2.003 1.613-2.003 1.081 0 1.523.871 1.523 1.898v.24h-2.619c0 .811.436 1.463 1.261 1.463.345 0 .848-.143 1.073-.285v.48h.001zm-.233-2.064c0-.668-.27-1.328-.975-1.328-.698 0-1.126.698-1.126 1.328h2.101zm-.787-3.121h.593l-.946 1.081h-.345l.698-1.081zm2.791 2.333c0-.42 0-.578-.03-.855h.473v.736h.015c.173-.428.496-.826.983-.826.112 0 .248.022.33.045v.496a1.242 1.242 0 0 0-.345-.045c-.75 0-.953.84-.953 1.531v1.891h-.473V14.81zm5.283 2.357h-.015c-.21.458-.743.705-1.216.705-1.088 0-1.26-.735-1.26-1.081 0-1.283 1.366-1.343 2.356-1.343h.09v-.195c0-.653-.233-.983-.871-.983-.398 0-.773.09-1.125.315v-.458a3.004 3.004 0 0 1 1.125-.263c.945 0 1.343.428 1.343 1.426v1.688c0 .308 0 .54.038.803h-.465v-.614zm-.045-1.313h-.135c-.818 0-1.793.083-1.793.923 0 .502.36.69.795.69 1.11 0 1.133-.968 1.133-1.381v-.232zm3.834-1.494h-.871v2.477c0 .345.128.63.51.63.18 0 .3-.038.436-.09l.03.39a1.723 1.723 0 0 1-.578.105c-.84 0-.871-.578-.871-1.275v-2.236h-.75v-.405h.75v-.923l.473-.165v1.088h.871v.404zm1.906-1.426h-.473v-.63h.473v.63zm-.473 1.021h.473v3.827h-.473v-3.827zm3.744-.09c1.238 0 1.786.96 1.786 2.003 0 1.043-.548 2.003-1.786 2.003s-1.786-.96-1.786-2.003c0-1.043.549-2.003 1.786-2.003zm0 3.602c.826 0 1.268-.713 1.268-1.599 0-.885-.442-1.598-1.268-1.598-.825 0-1.268.713-1.268 1.598 0 .886.443 1.599 1.268 1.599zm3.264-2.612c0-.293 0-.593-.03-.901h.458v.683h.015c.157-.345.442-.773 1.238-.773.946 0 1.306.63 1.306 1.471v2.446h-.473v-2.326c0-.72-.255-1.186-.908-1.186-.863 0-1.133.758-1.133 1.396v2.116h-.473v-2.926zm7.062 2.372c.285.143.63.24.998.24.45 0 .848-.248.848-.683 0-.908-1.838-.765-1.838-1.876 0-.758.615-1.043 1.246-1.043.203 0 .608.045.945.172l-.045.413a2.225 2.225 0 0 0-.848-.18c-.488 0-.826.15-.826.638 0 .713 1.884.623 1.884 1.876 0 .811-.758 1.088-1.336 1.088-.368 0-.735-.045-1.073-.18l.045-.465zm6.783-.346c0 .292 0 .593.03.9H93v-.683h-.015c-.158.345-.443.772-1.238.772-.945 0-1.306-.63-1.306-1.471v-2.446h.473v2.326c0 .721.255 1.186.908 1.186.863 0 1.133-.758 1.133-1.396v-2.116h.473v2.928zm2.243-3.947h-.473v-.63h.473v.63zm-.472 1.021h.473v3.827h-.473v-3.827zm1.958 3.272c.285.143.63.24.998.24.45 0 .848-.248.848-.683 0-.908-1.838-.765-1.838-1.876 0-.758.615-1.043 1.246-1.043.203 0 .608.045.945.172l-.045.413a2.225 2.225 0 0 0-.848-.18c-.488 0-.826.15-.826.638 0 .713 1.883.623 1.883 1.876 0 .811-.758 1.088-1.335 1.088-.368 0-.735-.045-1.073-.18l.045-.465zm3.505 0c.285.143.63.24.998.24.45 0 .848-.248.848-.683 0-.908-1.838-.765-1.838-1.876 0-.758.615-1.043 1.246-1.043.203 0 .608.045.945.172l-.045.413a2.225 2.225 0 0 0-.848-.18c-.488 0-.826.15-.826.638 0 .713 1.884.623 1.884 1.876 0 .811-.758 1.088-1.336 1.088-.368 0-.735-.045-1.073-.18l.045-.465zm6.362.435c-.33.135-.758.21-1.111.21-1.268 0-1.741-.855-1.741-2.003 0-1.17.646-2.003 1.613-2.003 1.081 0 1.523.871 1.523 1.898v.24h-2.619c0 .811.436 1.463 1.261 1.463.345 0 .848-.143 1.073-.285v.48h.001zm-.232-2.064c0-.668-.27-1.328-.975-1.328-.698 0-1.126.698-1.126 1.328h2.101zm-72.508 7.881c-.33-.172-.803-.225-1.171-.225-1.358 0-2.124.96-2.124 2.259 0 1.32.743 2.258 2.124 2.258.345 0 .871-.045 1.171-.225l.03.45c-.285.173-.87.225-1.201.225-1.651 0-2.641-1.088-2.641-2.708 0-1.591 1.021-2.709 2.641-2.709.308 0 .931.052 1.201.195l-.03.48zm3.249.736c1.238 0 1.786.96 1.786 2.003 0 1.043-.548 2.003-1.786 2.003s-1.786-.96-1.786-2.003c0-1.043.548-2.003 1.786-2.003zm0 3.602c.826 0 1.268-.713 1.268-1.599 0-.885-.442-1.598-1.268-1.598-.825 0-1.268.713-1.268 1.598 0 .886.443 1.599 1.268 1.599zm3.264-2.611c0-.293 0-.593-.03-.901h.458v.683h.015c.157-.345.442-.773 1.238-.773.946 0 1.306.63 1.306 1.471v2.446h-.473v-2.326c0-.72-.255-1.186-.908-1.186-.863 0-1.133.758-1.133 1.396v2.116h-.473v-2.926zm5.08-.496h-.773v-.405h.773v-.277c0-.803.03-1.613 1.013-1.613.15 0 .353.022.443.075l-.03.413a.832.832 0 0 0-.375-.083c-.645 0-.578.698-.578 1.155v.33h.863v.405h-.863v3.422h-.473V24.71zm5.328 3.302c-.33.135-.758.21-1.111.21-1.268 0-1.741-.855-1.741-2.003 0-1.17.646-2.003 1.613-2.003 1.081 0 1.523.871 1.523 1.898v.24H48.87c0 .811.436 1.463 1.261 1.463.345 0 .848-.143 1.073-.285v.48h.001zm-.233-2.064c0-.668-.27-1.328-.975-1.328-.698 0-1.126.698-1.126 1.328h2.101zm5.035 2.184h-.473v-.608h-.015c-.255.488-.646.698-1.193.698-1.05 0-1.576-.87-1.576-2.003 0-1.163.45-2.003 1.576-2.003.75 0 1.125.548 1.193.735h.015v-2.446h.473v5.627zm-1.606-.315c.84 0 1.133-.901 1.133-1.599s-.292-1.598-1.133-1.598c-.9 0-1.133.855-1.133 1.598 0 .743.233 1.599 1.133 1.599zm5.898.195c-.33.135-.758.21-1.111.21-1.268 0-1.741-.855-1.741-2.003 0-1.17.646-2.003 1.613-2.003 1.081 0 1.523.871 1.523 1.898v.24h-2.619c0 .811.436 1.463 1.261 1.463.345 0 .848-.143 1.073-.285v.48h.001zm-.233-2.064c0-.668-.27-1.328-.975-1.328-.698 0-1.126.698-1.126 1.328h2.101zm2.004-.788c0-.42 0-.578-.03-.855h.473v.735h.015c.173-.427.496-.825.983-.825.112 0 .248.022.33.045v.496a1.242 1.242 0 0 0-.345-.045c-.75 0-.953.841-.953 1.531v1.891h-.473V25.16zm5.283 2.357h-.015c-.21.458-.743.705-1.216.705-1.088 0-1.26-.735-1.26-1.081 0-1.283 1.366-1.343 2.356-1.343h.09v-.195c0-.653-.233-.983-.871-.983-.398 0-.773.09-1.125.315v-.458a3.004 3.004 0 0 1 1.125-.263c.945 0 1.343.428 1.343 1.426v1.688c0 .308 0 .54.038.803h-.465v-.614zm-.045-1.314h-.135c-.818 0-1.793.083-1.793.923 0 .502.36.69.795.69 1.11 0 1.133-.968 1.133-1.381v-.232zm1.831 1.531l2.304-3.024h-2.214v-.405h2.761v.405l-2.303 3.017h2.303v.405h-2.851zm4.742-4.45h-.473v-.63h.473v.63zm-.473 1.021h.473v3.827h-.473v-3.827zm3.744-.09c1.238 0 1.786.96 1.786 2.003 0 1.043-.548 2.003-1.786 2.003s-1.786-.96-1.786-2.003c0-1.043.549-2.003 1.786-2.003zm0 3.602c.826 0 1.268-.713 1.268-1.599 0-.885-.442-1.598-1.268-1.598-.825 0-1.268.713-1.268 1.598 0 .886.443 1.599 1.268 1.599zm3.265-2.611c0-.293 0-.593-.03-.901h.458v.683h.015c.157-.345.442-.773 1.238-.773.946 0 1.306.63 1.306 1.471v2.446h-.473v-2.326c0-.72-.255-1.186-.908-1.186-.863 0-1.133.758-1.133 1.396v2.116h-.473v-2.926zm7.323 2.806c-.33.135-.758.21-1.111.21-1.268 0-1.741-.855-1.741-2.003 0-1.17.646-2.003 1.613-2.003 1.081 0 1.523.871 1.523 1.898v.24h-2.619c0 .811.436 1.463 1.261 1.463.345 0 .848-.143 1.073-.285v.48h.001zm-.233-2.064c0-.668-.27-1.328-.975-1.328-.698 0-1.126.698-1.126 1.328h2.101zm4.511 1.516c.308.195.667.308 1.155.308.646 0 1.178-.33 1.178-1.073 0-1.028-2.401-1.156-2.401-2.529 0-.84.735-1.366 1.659-1.366.255 0 .667.038 1.028.172l-.083.473c-.232-.128-.601-.195-.953-.195-.54 0-1.133.225-1.133.9 0 1.051 2.401 1.058 2.401 2.589 0 1.058-.908 1.478-1.718 1.478-.51 0-.908-.105-1.186-.225l.053-.532zm5.754.668h-.555l-1.298-3.827h.518l1.058 3.31h.015l1.111-3.31h.495zm3.062-4.848h-.473v-.63h.473v.63zm-.473 1.021h.473v3.827h-.473v-3.827zm1.899 3.429l2.304-3.024h-2.214v-.405h2.761v.405l-2.303 3.017h2.303v.405h-2.851zm3.917 0l2.304-3.024h-2.214v-.405h2.761v.405l-2.303 3.017h2.303v.405h-2.851zm6.835.278c-.33.135-.758.21-1.111.21-1.268 0-1.741-.855-1.741-2.003 0-1.17.646-2.003 1.613-2.003 1.081 0 1.523.871 1.523 1.898v.24h-2.619c0 .811.436 1.463 1.261 1.463.345 0 .848-.143 1.073-.285v.48h.001zm-.233-2.064c0-.668-.27-1.328-.975-1.328-.698 0-1.126.698-1.126 1.328h2.101zm2.004-.788c0-.42 0-.578-.03-.855h.473v.735h.015c.173-.427.496-.825.983-.825.112 0 .248.022.33.045v.496a1.242 1.242 0 0 0-.345-.045c-.75 0-.953.841-.953 1.531v1.891h-.473V25.16zm5.283 2.357h-.015c-.21.458-.743.705-1.216.705-1.088 0-1.26-.735-1.26-1.081 0-1.283 1.366-1.343 2.356-1.343h.09v-.195c0-.653-.233-.983-.871-.983-.398 0-.773.09-1.125.315v-.458a3.004 3.004 0 0 1 1.125-.263c.945 0 1.343.428 1.343 1.426v1.688c0 .308 0 .54.038.803h-.465v-.614zm-.045-1.314h-.135c-.818 0-1.793.083-1.793.923 0 .502.36.69.795.69 1.11 0 1.133-.968 1.133-1.381v-.232zm-85.737 7.626c-.33-.172-.803-.225-1.171-.225-1.358 0-2.124.96-2.124 2.259 0 1.32.743 2.258 2.124 2.258.345 0 .871-.045 1.171-.225l.03.45c-.285.173-.87.225-1.201.225-1.651 0-2.641-1.088-2.641-2.708 0-1.591 1.021-2.709 2.641-2.709.308 0 .931.052 1.201.195l-.03.48zm3.249.735c1.238 0 1.786.96 1.786 2.003 0 1.043-.548 2.003-1.786 2.003s-1.786-.96-1.786-2.003c0-1.043.548-2.003 1.786-2.003zm0 3.603c.826 0 1.268-.713 1.268-1.599 0-.885-.442-1.598-1.268-1.598-.825 0-1.268.713-1.268 1.598 0 .886.443 1.599 1.268 1.599zm3.264-2.612c0-.293 0-.593-.03-.901h.458v.683h.015c.157-.345.442-.773 1.238-.773.946 0 1.306.63 1.306 1.471v2.446h-.473v-2.326c0-.72-.255-1.186-.908-1.186-.863 0-1.133.758-1.133 1.396v2.116h-.473v-2.926zm5.08-.495h-.773v-.405h.773v-.277c0-.803.03-1.613 1.013-1.613.15 0 .353.022.443.075l-.03.413a.832.832 0 0 0-.375-.083c-.645 0-.578.698-.578 1.155v.33h.863v.405h-.863v3.422h-.473V35.06zm5.328 3.301c-.33.135-.758.21-1.111.21-1.268 0-1.741-.855-1.741-2.003 0-1.17.646-2.003 1.613-2.003 1.081 0 1.523.871 1.523 1.898v.24H48.87c0 .811.436 1.463 1.261 1.463.345 0 .848-.143 1.073-.285v.48h.001zm-.233-2.063c0-.668-.27-1.328-.975-1.328-.698 0-1.126.698-1.126 1.328h2.101zm5.035 2.183h-.473v-.608h-.015c-.255.488-.646.698-1.193.698-1.05 0-1.576-.87-1.576-2.003 0-1.163.45-2.003 1.576-2.003.75 0 1.125.548 1.193.735h.015v-2.446h.473v5.627zm-1.606-.314c.84 0 1.133-.901 1.133-1.599s-.292-1.598-1.133-1.598c-.9 0-1.133.855-1.133 1.598 0 .743.233 1.599 1.133 1.599zm5.898.194c-.33.135-.758.21-1.111.21-1.268 0-1.741-.855-1.741-2.003 0-1.17.646-2.003 1.613-2.003 1.081 0 1.523.871 1.523 1.898v.24h-2.619c0 .811.436 1.463 1.261 1.463.345 0 .848-.143 1.073-.285v.48h.001zm-.233-2.063c0-.668-.27-1.328-.975-1.328-.698 0-1.126.698-1.126 1.328h2.101zm2.004-.788c0-.42 0-.578-.03-.855h.473v.735h.015c.173-.427.496-.825.983-.825.112 0 .248.022.33.045v.496a1.242 1.242 0 0 0-.345-.045c-.75 0-.953.841-.953 1.531v1.891h-.473V35.51zm5.283 2.356h-.015c-.21.458-.743.705-1.216.705-1.088 0-1.26-.735-1.26-1.081 0-1.283 1.366-1.343 2.356-1.343h.09v-.195c0-.653-.233-.983-.871-.983-.398 0-.773.09-1.125.315v-.458a3.004 3.004 0 0 1 1.125-.263c.945 0 1.343.428 1.343 1.426v1.688c0 .308 0 .54.038.803h-.465v-.614zm-.045-1.313h-.135c-.818 0-1.793.083-1.793.923 0 .502.36.69.795.69 1.11 0 1.133-.968 1.133-1.381v-.232zm1.831 1.531l2.304-3.024h-2.214v-.405h2.761v.405l-2.303 3.017h2.303v.405h-2.851zm4.742-4.45h-.473v-.63h.473v.63zm-.473 1.02h.473v3.827h-.473v-3.827zm5.238 2.927c0 .292 0 .593.03.9h-.458v-.683h-.015c-.158.345-.443.772-1.238.772-.945 0-1.306-.63-1.306-1.471v-2.446h.473v2.326c0 .721.255 1.186.908 1.186.863 0 1.133-.758 1.133-1.396v-2.116h.473v2.928zm1.771-2.026c0-.293 0-.593-.03-.901h.458v.683h.015c.157-.345.442-.773 1.238-.773.946 0 1.306.63 1.306 1.471v2.446h-.473v-2.326c0-.72-.255-1.186-.908-1.186-.863 0-1.133.758-1.133 1.396v2.116h-.473v-2.926zm7.061 2.371c.285.143.63.24.998.24.45 0 .848-.248.848-.683 0-.908-1.838-.765-1.838-1.876 0-.758.615-1.043 1.246-1.043.203 0 .608.045.945.173l-.045.413a2.225 2.225 0 0 0-.848-.18c-.488 0-.826.15-.826.638 0 .713 1.883.623 1.883 1.876 0 .811-.758 1.088-1.335 1.088-.368 0-.735-.045-1.073-.18l.045-.466zm5.125.555h-.555l-1.298-3.827h.518l1.058 3.31h.015l1.111-3.31h.495zm3.061-4.847h-.473v-.63h.473v.63zm-.473 1.02h.473v3.827h-.473v-3.827zm1.899 3.43l2.304-3.024H97.18v-.405h2.761v.405l-2.303 3.017h2.303v.405H97.09zm4.269-2.574c0-.42 0-.578-.03-.855h.473v.735h.015c.173-.427.496-.825.983-.825.112 0 .248.022.33.045v.496a1.242 1.242 0 0 0-.345-.045c-.75 0-.953.841-.953 1.531v1.891h-.473V35.51zm5.283 2.356h-.015c-.21.458-.743.705-1.216.705-1.088 0-1.26-.735-1.26-1.081 0-1.283 1.366-1.343 2.356-1.343h.09v-.195c0-.653-.233-.983-.871-.983-.398 0-.773.09-1.125.315v-.458a3.004 3.004 0 0 1 1.125-.263c.945 0 1.343.428 1.343 1.426v1.688c0 .308 0 .54.038.803h-.465v-.614zm-.045-1.313h-.135c-.818 0-1.793.083-1.793.923 0 .502.36.69.795.69 1.11 0 1.133-.968 1.133-1.381v-.232z" fill="#000"/><path d="M21.959 1.965S17.99.227 11.346.227h-.002C4.699.227.73 1.965.73 1.965S.375 9.661 1.881 14.013c2.661 7.651 9.462 9.801 9.462 9.801h.004s6.8-2.149 9.462-9.801c1.506-4.351 1.15-12.048 1.15-12.048z" fill="#E30613"/><path fill="#FFF" d="M18.398 8.6v4.24h-4.947v4.948h-4.24V12.84H4.264V8.6h4.947V3.654h4.239l.001 4.946z"/></g></svg>